HIERARCHY
ROOT Hips
{
	OFFSET 0.00000 0.00000 0.00000
	CHANNELS 6 Xposition Yposition Zposition Zrotation Yrotation Xrotation 
	JOINT LHipJoint
	{
		OFFSET 0 0 0
		CHANNELS 3 Zrotation Yrotation Xrotation
		JOINT LeftHip
		{
			OFFSET 1.59801 -1.77853 0.57028
			CHANNELS 3 Zrotation Yrotation Xrotation
			JOINT LeftKnee
			{
				OFFSET 2.39439 -6.57854 0.00000
				CHANNELS 3 Zrotation Yrotation Xrotation
				JOINT LeftAnkle
				{
					OFFSET 2.69334 -7.39989 0.00000
					CHANNELS 3 Zrotation Yrotation Xrotation
					JOINT LeftToe
					{
						OFFSET 0.09553 -0.26245 1.73747
						CHANNELS 3 Zrotation Yrotation Xrotation
						End Site
						{
							OFFSET 0.00000 -0.00000 0.89391
						}
					}
				}
			}
		}
	}
	JOINT RHipJoint
	{
		OFFSET 0 0 0
		CHANNELS 3 Zrotation Yrotation Xrotation
		JOINT RightHip
		{
			OFFSET -1.54704 -1.77852 0.57028
			CHANNELS 3 Zrotation Yrotation Xrotation
			JOINT RightKnee
			{
				OFFSET -2.40286 -6.60180 0.00000
				CHANNELS 3 Zrotation Yrotation Xrotation
				JOINT RightAnkle
				{
					OFFSET -2.63873 -7.24984 0.00000
					CHANNELS 3 Zrotation Yrotation Xrotation
					JOINT RightToe
					{
						OFFSET -0.15631 -0.42945 1.84436
						CHANNELS 3 Zrotation Yrotation Xrotation
						End Site
						{
							OFFSET -0.00000 -0.00000 0.95734
						}
					}
				}
			}
		}
	}
	JOINT lowerback
	{
		OFFSET 0 0 0
		CHANNELS 3 Zrotation Yrotation Xrotation
		JOINT Chest
		{
			OFFSET -0.00436 1.89866 -0.04018
			CHANNELS 3 Zrotation Yrotation Xrotation
			JOINT Chest2
			{
				OFFSET 0.02031 1.88273 0.09634
				CHANNELS 3 Zrotation Yrotation Xrotation
				JOINT lowerneck
				{
					OFFSET 0 0 0
					CHANNELS 3 Zrotation Yrotation Xrotation
					JOINT Neck
					{
						OFFSET -0.13105 1.89371 0.23083
						CHANNELS 3 Zrotation Yrotation Xrotation
						JOINT Head
						{
							OFFSET 0.17062 1.83990 -0.54062
							CHANNELS 3 Zrotation Yrotation Xrotation
							End Site
							{
								OFFSET 0.04576 1.94782 -0.21839
							}
						}
					}
				}
				JOINT LeftCollar
				{
					OFFSET 0 0 0
					CHANNELS 3 Zrotation Yrotation Xrotation
					JOINT LeftShoulder
					{
						OFFSET 3.12424 1.09204 0.22226
CHANNELS 3 Zrotation Xrotation Yrotation
						JOINT LeftElbow
						{
OFFSET 0 -5.292770 0.000000
CHANNELS 3 Zrotation Xrotation Yrotation
							JOINT LeftWrist
							{
OFFSET 0 -2.852260 0.000000
CHANNELS 3 Zrotation Xrotation Yrotation
								JOINT lhand
								{
									OFFSET 0 0 0
CHANNELS 3 Zrotation Xrotation Yrotation
									JOINT LFingers
									{
OFFSET 0 -0.602100 0.000000
CHANNELS 3 Zrotation Xrotation Yrotation
										End Site
										{
OFFSET 0 -0.485430 0.000000
										}
									}
								}
								JOINT LThumb
								{
OFFSET 0 0.000000 0.000000
CHANNELS 3 Zrotation Xrotation Yrotation
									End Site
									{
OFFSET 0 -0.492840 0.492840
									}
								}
							}
						}
					}
				}
				JOINT RightCollar
				{
					OFFSET 0 0 0
					CHANNELS 3 Zrotation Yrotation Xrotation
					JOINT RightShoulder
					{
						OFFSET -2.91709 1.01504 0.30199
CHANNELS 3 Zrotation Xrotation Yrotation
						JOINT RightElbow
						{
OFFSET 0 -5.133040 0.000000
CHANNELS 3 Zrotation Xrotation Yrotation
							JOINT RightWrist
							{
OFFSET 0 -2.743050 0.000000
CHANNELS 3 Zrotation Xrotation Yrotation
								JOINT rhand
								{
									OFFSET 0 0 0
CHANNELS 3 Zrotation Xrotation Yrotation
									JOINT RFingers
									{
OFFSET 0 -0.767980 0.000000
CHANNELS 3 Zrotation Xrotation Yrotation
										End Site
										{
OFFSET 0 -0.619160 0.000000
										}
									}
								}
								JOINT RThumb
								{
OFFSET 0 0.000000 0.000000
CHANNELS 3 Zrotation Xrotation Yrotation
									End Site
									{
OFFSET 0 -0.628620 0.628620
									}
								}
							}
						}
					}
				}
			}
		}
	}
}
MOTION
Frames: 10
Frame Time: 0.008333333333333333
0.287000 17.489200 -0.199900 -0.870900 2.045100 4.513800 0.000000 0.000000 0.000000 -19.309900 -19.541500 2.217000 0.536300 4.692400 13.033300 0.272000 8.674600 -16.548800 1.094800 -6.649000 -18.679700 0.000000 0.000000 0.000000 19.896200 8.121400 6.478400 0.000000 0.000000 0.000000 0.263200 -11.096400 -10.920400 -0.586800 4.904500 -13.636300 0.083200 -0.112200 -1.613800 1.300400 -0.131100 -2.657200 1.286300 -0.053000 -1.815500 -18.970400 -11.109000 -5.993200 19.720200 -16.376600 13.965500 7.955400 -7.628300 8.597500 -0.000000 0.000000 0.000000 -1.620900 -0.558600 -14.110100 6.991500 -11.905300 0.729900 8.608500 29.187000 -22.295600 0.000000 0.000000 0.000000 -7.125000 0.000000 0.000000 -20.415500 51.345700 3.307500 -0.000000 0.000000 0.000000 -1.498800 4.698500 19.844700 -12.194600 -20.095900 -2.168700 -12.145200 34.788000 -13.716800 0.000000 0.000000 0.000000 7.125000 0.000000 -0.000000 10.442200 16.111100 7.257300
0.262950 17.489164 -0.140651 -0.922746 1.070420 4.985936 0.000000 0.000000 0.000000 -19.119010 -18.660600 1.732635 0.535721 4.689835 13.026040 0.285484 8.605567 -16.648771 1.039699 -6.484411 -18.196711 0.000000 0.000000 0.000000 19.990552 9.196116 6.383410 0.000000 0.000000 0.000000 0.289472 -11.286180 -10.669529 -0.648101 5.149846 -14.336473 0.474492 -0.152574 -1.528746 1.424278 -0.185818 -2.535745 1.193873 -0.086802 -1.738054 -18.929774 -11.045684 -5.686747 20.051028 -16.329091 13.491633 8.082569 -7.610157 8.404714 0.000000 0.000000 0.000000 -0.364728 -0.352186 -12.929234 7.242527 -12.317748 0.782543 7.435799 32.591262 -21.056950 0.000000 0.000000 0.000000 -7.125000 0.000000 0.000000 -20.910994 50.001272 2.681856 0.000000 0.000000 0.000000 -1.743704 4.694640 19.617070 -12.219919 -20.133568 -2.177356 -12.025582 34.835670 -13.436351 0.000000 0.000000 0.000000 7.125000 0.000000 0.000000 10.529181 16.400176 7.252670
0.221658 17.483557 -0.069187 -0.852398 1.320519 5.071684 0.000000 0.000000 0.000000 -19.047190 -18.896393 1.794994 0.552643 4.762144 13.231419 0.293328 8.706043 -16.854988 1.172952 -6.874198 -19.343320 0.000000 0.000000 0.000000 20.103624 8.889281 6.494986 0.000000 0.000000 0.000000 0.263730 -11.159782 -11.045277 -0.637157 5.106915 -14.213817 0.318182 -0.244086 -1.422615 1.484026 -0.305985 -2.490360 1.343171 -0.143628 -1.747768 -18.861313 -11.076788 -5.966398 19.872571 -16.359687 13.864392 7.995891 -7.608628 8.561216 0.000000 0.000000 0.000000 -0.340045 -0.687470 -14.004248 7.791838 -13.214849 0.903942 6.307544 32.349046 -21.697763 0.000000 0.000000 0.000000 -7.125000 0.000000 0.000000 -22.272256 50.422928 3.111206 0.000000 0.000000 0.000000 -1.893187 4.583761 20.226549 -12.175289 -20.066948 -2.162016 -12.163286 34.402115 -13.230921 0.000000 0.000000 0.000000 7.125000 0.000000 0.000000 10.439120 16.597038 7.143023
0.170872 17.464950 -0.061535 -0.826748 1.801919 5.529793 0.000000 0.000000 0.000000 -18.343883 -18.953030 -0.036403 0.697223 5.337551 14.873985 0.426746 7.426340 -17.240488 0.979343 -6.298159 -17.652479 0.000000 0.000000 0.000000 20.219128 8.618437 5.840967 0.000000 0.000000 0.000000 0.262428 -10.992508 -10.709522 -0.595557 4.940191 -13.737943 0.381544 -0.209268 -0.951510 1.388639 -0.256124 -2.413226 1.211501 -0.120576 -1.934546 -18.683302 -11.087188 -6.134419 19.797853 -16.257457 13.328721 7.934094 -7.552632 8.371251 0.000000 0.000000 0.000000 0.005159 -1.179306 -13.746535 7.632309 -12.955050 0.867809 5.673743 33.736758 -21.618335 0.000000 0.000000 0.000000 -7.125000 0.000000 0.000000 -22.819844 50.251432 3.095147 0.000000 0.000000 0.000000 -1.736251 3.597389 20.623424 -12.397967 -20.398729 -2.239082 -12.008398 34.045137 -13.276286 0.000000 0.000000 0.000000 7.125000 0.000000 0.000000 10.544262 16.561623 7.225779
0.091272 17.336817 -0.132486 -1.677604 1.081763 6.272356 0.000000 0.000000 0.000000 -16.024559 -16.325898 -7.210079 1.620665 8.026566 22.794869 0.853495 2.505773 -18.529365 0.933178 -6.152268 -17.227301 0.000000 0.000000 0.000000 21.256639 12.363561 -3.272825 -0.727412 -5.448967 15.193779 -0.280400 -9.468251 -17.515101 -0.560283 4.794190 -13.322463 0.733406 -0.137469 0.107879 1.704097 -0.147669 -1.761702 1.338203 -0.070627 -1.862825 -18.642648 -11.137520 -6.693776 20.338033 -16.193155 12.444726 8.086757 -7.469487 8.225654 0.000000 0.000000 0.000000 0.795894 -1.556430 19.210862 6.218343 -10.625815 0.578908 6.640696 65.699967 -14.253760 0.000000 0.000000 0.000000 -7.125000 0.000000 0.000000 -18.901524 43.485634 -0.734181 0.000000 0.000000 0.000000 -1.943041 1.376162 21.696341 -12.550831 -20.625553 -2.292639 -12.479276 33.282929 -13.382596 0.000000 0.000000 0.000000 7.125000 0.000000 0.000000 10.219885 16.423668 7.027139
0.067181 16.946181 -0.255702 -1.947168 -2.913222 7.310015 0.000000 0.000000 0.000000 -14.661200 -12.237221 -17.030142 3.763186 11.838091 35.162025 1.472501 -2.277775 -22.318712 0.794562 -5.689639 -15.886615 0.000000 0.000000 0.000000 20.084921 13.171910 -14.781321 -2.926993 -10.575134 30.860683 -1.301893 -1.746040 -22.250951 -0.589113 4.913542 -13.662203 0.369722 -0.161732 1.332600 1.582133 -0.173897 -1.549075 1.421820 -0.078971 -2.331653 -18.145894 -10.442734 -6.905018 21.306524 -15.048486 10.281235 8.490530 -6.885790 7.381504 0.000000 0.000000 0.000000 -0.322671 -4.150569 58.260235 4.076139 -7.018535 0.250657 11.007116 115.753990 -18.973257 0.000000 0.000000 0.000000 -7.125000 0.000000 0.000000 -16.689723 48.548339 1.499979 0.000000 0.000000 0.000000 -1.757777 -1.078317 24.175405 -12.567049 -20.649508 -2.298341 -11.466084 32.057541 -12.859326 0.000000 0.000000 0.000000 7.125000 0.000000 0.000000 10.926200 17.012982 7.387639
-0.002280 17.120018 -0.060254 -2.835421 5.119894 3.823310 0.000000 0.000000 0.000000 -13.776450 -13.824801 -10.879146 2.870889 10.482858 30.555161 1.063887 -5.678731 -18.429404 0.862654 -5.922414 -16.559633 0.000000 0.000000 0.000000 22.972501 6.325533 -6.955615 -1.686882 -8.180160 23.263066 -0.917277 -6.209088 -21.368988 -0.521227 4.626698 -12.846913 -0.217758 -0.630219 0.374004 -0.430327 -0.857286 -2.993810 -0.292451 -0.427645 -3.286711 -20.356039 -12.884466 -4.018637 18.323127 -19.024591 15.062522 7.302633 -9.143243 9.159482 0.000000 0.000000 0.000000 -8.303338 -27.204275 -74.771761 20.426923 -31.129825 5.762027 2.919020 -0.376847 -28.123412 0.000000 0.000000 0.000000 -7.125000 0.000000 0.000000 -29.432338 55.591916 8.161209 0.000000 0.000000 0.000000 -0.400870 3.665895 16.509397 -9.460195 -15.890826 -1.323323 -11.842133 43.276378 -14.154923 0.000000 0.000000 0.000000 7.125000 0.000000 0.000000 10.640703 15.693156 7.498066
-0.166897 17.251902 0.221695 -3.745354 1.110031 1.989499 0.000000 0.000000 0.000000 -14.262858 -14.361217 -1.493165 1.709466 8.232738 23.423315 1.117592 1.530479 -20.579808 1.005638 -6.378772 -17.888146 0.000000 0.000000 0.000000 25.495693 10.598208 3.986176 -0.509242 -4.574263 12.698194 -0.205492 -10.457835 -17.722100 -0.562174 4.802002 -13.344690 -0.309808 0.617647 -2.037514 -3.910733 0.705301 -4.905773 -3.883190 0.281706 -3.872557 -22.099687 -12.098012 -3.719416 16.594877 -18.583435 22.611718 7.224060 -9.219722 11.717223 0.000000 0.000000 0.000000 -17.770208 -48.767363 -32.764382 156.503535 -34.623423 112.579915 3.468176 -66.349639 -28.739608 0.000000 0.000000 0.000000 -7.125000 0.000000 0.000000 -29.371032 56.235252 8.614321 0.000000 0.000000 0.000000 2.332608 5.029964 22.982719 -12.847328 -21.062773 -2.398320 -11.702896 30.366362 -13.307781 0.000000 0.000000 0.000000 7.125000 0.000000 0.000000 10.752551 16.550129 7.376613
-0.196847 17.211041 0.131207 -4.605843 4.722923 0.045166 0.000000 0.000000 0.000000 -13.336807 -15.741237 -1.178887 1.956698 8.775225 25.094665 1.191313 -0.763618 -20.399824 0.883224 -5.990784 -16.757783 0.000000 0.000000 0.000000 26.656123 5.656689 4.406465 -0.475762 -4.423358 12.270810 -0.316263 -9.347405 -17.818635 -0.420392 4.161533 -11.531523 -0.464707 0.268875 -1.394284 -3.082614 0.281420 -3.880705 -2.920092 0.104079 -3.196265 -22.357980 -12.239824 -3.669149 16.464114 -18.836616 23.417045 7.192526 -9.364220 12.099609 0.000000 0.000000 0.000000 -12.880249 -44.167646 -26.742731 155.658083 -35.523725 112.095625 12.800390 -58.017423 -32.905786 0.000000 0.000000 0.000000 -7.125000 0.000000 0.000000 -23.421649 62.022759 9.993882 0.000000 0.000000 0.000000 0.914874 6.298485 19.447450 -18.272599 -28.504053 -4.679046 -10.984437 20.106592 -12.421942 0.000000 0.000000 0.000000 7.125000 0.000000 0.000000 11.270828 17.478117 7.512660
-0.065248 17.187920 -0.130779 -0.712228 3.355014 0.230002 0.000000 0.000000 0.000000 -17.632447 -13.185209 -2.387848 1.816403 8.472654 24.159140 0.988418 -1.205257 -18.426646 1.129721 -6.750714 -18.978874 0.000000 0.000000 0.000000 21.706099 7.710317 -0.389889 -1.282813 -7.177258 20.241555 -0.710626 -8.007072 -20.787223 -0.513221 4.591324 -12.746597 -1.288338 0.610164 -1.286470 -1.555090 0.810476 -1.649976 -0.866774 0.409990 -0.963214 -21.854810 -11.988034 -8.412520 16.557348 -17.588486 24.081847 7.192730 -8.449950 12.987679 0.000000 0.000000 0.000000 -8.744690 -16.488801 -83.121223 132.028826 -52.140762 95.436265 8.747426 -31.770766 -34.607651 0.000000 0.000000 0.000000 -7.125000 0.000000 0.000000 -29.379138 62.494405 13.084537 0.000000 0.000000 0.000000 1.651921 -1.286925 49.382909 -59.236143 -56.093742 -33.708337 -0.238065 -12.777044 -10.792959 0.000000 0.000000 0.000000 7.125000 0.000000 0.000000 18.737900 19.439030 12.092698
